<svg width="29" height="26" viewBox="0 0 29 26" fill="none" xmlns="http://www.w3.org/2000/svg">
<path d="M1.10352 0.0996094H5.93164C6.40323 0.0997946 6.8186 0.435989 6.91504 0.895508L7.08301 1.68945L7.10059 1.76855H7.18066L26.9307 1.83398C27.0748 1.83483 27.2172 1.86743 27.3477 1.92871C27.4779 1.98998 27.593 2.07917 27.6855 2.18945C27.8725 2.41333 27.9496 2.70823 27.8984 2.99512L25.748 15.0293C25.6628 15.5002 25.2548 15.8407 24.7783 15.8408L9.25293 15.8691H9.19043L9.16309 15.9248L8.22852 17.8281L8.1582 17.9717H26.9277C27.1936 17.9718 27.4492 18.0772 27.6377 18.2646C27.8025 18.4286 27.9045 18.6439 27.9287 18.873L27.9346 18.9727C27.9341 19.5261 27.4824 19.9744 26.9316 19.9746H23.1914L23.3105 20.1348C23.7104 20.671 23.9345 21.3282 23.9346 22.0029C23.9346 23.7165 22.5416 25.1094 20.8281 25.1094C19.1146 25.1094 17.7217 23.7165 17.7217 22.0029C17.7211 21.3291 17.9404 20.6731 18.3457 20.1348L18.4658 19.9746H13.0322L13.1514 20.1348C13.5512 20.6709 13.7753 21.3282 13.7754 22.0029C13.7754 23.7164 12.3824 25.1093 10.6689 25.1094C8.95542 25.1094 7.5625 23.7165 7.5625 22.0029C7.56193 21.3291 7.78124 20.6731 8.18652 20.1348L8.30664 19.9746H6.14355C5.76286 19.9745 5.4196 19.7619 5.24902 19.4238L5.24805 19.4229C5.16345 19.2582 5.1266 19.0732 5.1416 18.8887C5.15665 18.704 5.22273 18.5268 5.33301 18.3779L5.33398 18.3789L5.33887 18.3711L7.67578 14.5557L7.69629 14.5215L7.68848 14.4824L5.87305 5.69238L5.13574 2.18555L5.11914 2.10645H1.10352C0.83747 2.10645 0.581677 2.00062 0.393555 1.8125C0.205585 1.62448 0.0997127 1.36937 0.0996094 1.10352C0.0996094 0.83747 0.205432 0.581677 0.393555 0.393555C0.581677 0.205432 0.83747 0.0996094 1.10352 0.0996094ZM10.6689 20.916C10.07 20.916 9.58116 21.404 9.58105 22.0029C9.58105 22.6019 10.07 23.0908 10.6689 23.0908C10.9572 23.0908 11.2336 22.9762 11.4375 22.7725C11.6414 22.5685 11.7559 22.2914 11.7559 22.0029C11.7558 21.4041 11.2678 20.9161 10.6689 20.916ZM20.8281 20.916C20.2292 20.916 19.7403 21.404 19.7402 22.0029C19.7402 22.6019 20.2291 23.0908 20.8281 23.0908C21.1164 23.0908 21.3928 22.9762 21.5967 22.7725C21.8006 22.5685 21.916 22.2914 21.916 22.0029C21.9159 21.404 21.427 20.916 20.8281 20.916ZM7.54297 3.86426L9.63965 13.8174L9.65625 13.8975L9.7373 13.8965L23.8721 13.8721H23.9561L23.9707 13.7891L25.7324 3.9209L25.7539 3.80371L25.6348 3.80273L7.64062 3.74414L7.51758 3.74316L7.54297 3.86426Z" fill="#0069B4" stroke="white" stroke-width="0.2"/>
</svg>
